# xmcd CD database file
#
# Track frame offsets:
#	150
#	33952
#	94774
#	122971
#	157720
#
# Disc length: 2862 seconds
#
# Revision: 0
# Processed by: cddbd v1.5.2PL0 Copyright (c) Steve Scherf et al.
# Submitted via: CDex 1.51
#
DISCID=310b2c05
DTITLE=Jerry Johansson Quartet - House Of Hope
DYEAR=2012
DGENRE=Jazz
TTITLE0=House Of Hope I
TTITLE1=House Of Hope II
TTITLE2=House Of Hope III
TTITLE3=House Of Hope IV
TTITLE4=House Of Hope V
EXTD=YEAR: 2012
EXTT0=
EXTT1=
EXTT2=
EXTT3=
EXTT4=
PLAYORDER=
